<svg xmlns="http://www.w3.org/2000/svg" xmlns:xlink="http://www.w3.org/1999/xlink" width="87.83" height="82.447" viewBox="0 0 87.83 82.447">
  <defs>
    <clipPath id="clip-path">
      <rect id="Rectangle_411175" data-name="Rectangle 411175" width="77" height="72" transform="translate(1238 1748.462)" fill="#fff" stroke="#707070" stroke-width="1"/>
    </clipPath>
  </defs>
  <g id="Group_1209279" data-name="Group 1209279" transform="translate(-1227.17 -1738.015)">
    <g id="Rectangle_411174" data-name="Rectangle 411174" transform="translate(1227.17 1738.015)" fill="#b7a8f1" stroke="#7f74a8" stroke-width="3">
      <rect width="70" height="70" rx="10" stroke="none"/>
      <rect x="1.5" y="1.5" width="67" height="67" rx="8.5" fill="none"/>
    </g>
    <g id="Mask_Group_1099406" data-name="Mask Group 1099406" clip-path="url(#clip-path)">
      <g id="target_11152489" transform="translate(1238.1 1746.062)">
        <path id="Path_1248559" data-name="Path 1248559" d="M74.4,38.077v.646a2.742,2.742,0,0,1-2.736,2.737H69.679A31.431,31.431,0,0,1,41.46,69.68v1.984A2.742,2.742,0,0,1,38.723,74.4h-.646a2.742,2.742,0,0,1-2.736-2.736V69.68A31.431,31.431,0,0,1,7.121,41.46H5.136A2.742,2.742,0,0,1,2.4,38.723v-.646a2.742,2.742,0,0,1,2.736-2.736H7.12A31.431,31.431,0,0,1,35.341,7.121V5.136A2.742,2.742,0,0,1,38.077,2.4h.646A2.742,2.742,0,0,1,41.46,5.136V7.121A31.431,31.431,0,0,1,69.68,35.341h1.984A2.742,2.742,0,0,1,74.4,38.077ZM62.451,41.46H60.67a2.742,2.742,0,0,1-2.736-2.736v-.646a2.742,2.742,0,0,1,2.736-2.736h1.782A24.254,24.254,0,0,0,41.46,14.349V16.13a2.742,2.742,0,0,1-2.736,2.736h-.646a2.742,2.742,0,0,1-2.736-2.736V14.349A24.254,24.254,0,0,0,14.348,35.341H16.13a2.742,2.742,0,0,1,2.736,2.736v.646A2.742,2.742,0,0,1,16.13,41.46H14.349A24.254,24.254,0,0,0,35.341,62.453V60.67a2.742,2.742,0,0,1,2.736-2.736h.646A2.742,2.742,0,0,1,41.46,60.67v1.782A24.254,24.254,0,0,0,62.451,41.46ZM52,53.592V23.209a1.8,1.8,0,0,0-1.789-1.789l-19.8,0a.821.821,0,0,0-.676.29l-4.693,5.519a.822.822,0,0,0-.233.574V53.591a1.8,1.8,0,0,0,1.79,1.789H50.206A1.792,1.792,0,0,0,52,53.591Z" fill-rule="evenodd"/>
        <path id="Path_1248560" data-name="Path 1248560" d="M31.183,23.066v3.583A1.986,1.986,0,0,1,29.2,28.63H26.454V53.591a.14.14,0,0,0,.14.14H50.206a.143.143,0,0,0,.14-.14V23.209a.138.138,0,0,0-.14-.14ZM30.2,50.814a.825.825,0,0,1,0-1.649H46.6a.825.825,0,1,1,0,1.649ZM30.2,45a.825.825,0,0,1,0-1.649H46.6A.825.825,0,0,1,46.6,45Zm0-5.814a.825.825,0,0,1,0-1.649H46.6a.825.825,0,0,1,0,1.649Zm0-5.814a.825.825,0,0,1,0-1.649H46.6a.825.825,0,0,1,0,1.649Z" fill="#fff" fill-rule="evenodd"/>
        <g id="Group_1209245" data-name="Group 1209245">
          <path id="Path_1248561" data-name="Path 1248561" d="M60.67,36.99H71.664a1.087,1.087,0,0,1,1.087,1.087v.646a1.087,1.087,0,0,1-1.087,1.087H60.67a1.088,1.088,0,0,1-1.087-1.088v-.646A1.087,1.087,0,0,1,60.67,36.99Z" fill="#689ff2"/>
          <path id="Path_1248562" data-name="Path 1248562" d="M38.077,59.583h.646A1.087,1.087,0,0,1,39.81,60.67V71.664a1.087,1.087,0,0,1-1.088,1.087h-.646a1.087,1.087,0,0,1-1.087-1.087V60.67a1.087,1.087,0,0,1,1.087-1.087Z" fill="#689ff2"/>
          <path id="Path_1248563" data-name="Path 1248563" d="M5.136,36.99H16.13a1.088,1.088,0,0,1,1.087,1.088v.646a1.087,1.087,0,0,1-1.087,1.087H5.136a1.087,1.087,0,0,1-1.087-1.087v-.646A1.088,1.088,0,0,1,5.136,36.99Z" fill="#689ff2"/>
          <path id="Path_1248564" data-name="Path 1248564" d="M41.46,8.776v3.912A25.9,25.9,0,0,1,64.113,35.341h3.912A29.792,29.792,0,0,0,41.46,8.776Z" fill="#689ff2" fill-rule="evenodd"/>
          <path id="Path_1248565" data-name="Path 1248565" d="M35.341,12.688V8.776A29.792,29.792,0,0,0,8.776,35.341h3.912A25.9,25.9,0,0,1,35.341,12.688Z" fill="#689ff2" fill-rule="evenodd"/>
          <rect id="Rectangle_411221" data-name="Rectangle 411221" width="2.821" height="13.168" rx="1.087" transform="translate(36.99 4.049)" fill="#689ff2"/>
          <path id="Path_1248566" data-name="Path 1248566" d="M20.092,56.708a25.818,25.818,0,0,1-7.4-15.248H8.776A29.792,29.792,0,0,0,35.341,68.025V64.112a25.817,25.817,0,0,1-15.249-7.4Z" fill="#689ff2" fill-rule="evenodd"/>
          <path id="Path_1248567" data-name="Path 1248567" d="M56.708,56.708a25.818,25.818,0,0,1-15.248,7.4v3.913A29.792,29.792,0,0,0,68.025,41.46H64.113a25.818,25.818,0,0,1-7.405,15.248Z" fill="#689ff2" fill-rule="evenodd"/>
          <path id="Path_1248568" data-name="Path 1248568" d="M27.41,26.981H29.2a.336.336,0,0,0,.333-.333V24.484Z" fill="#689ff2" fill-rule="evenodd"/>
        </g>
      </g>
    </g>
  </g>
</svg>
