<svg xmlns="http://www.w3.org/2000/svg" xmlns:xlink="http://www.w3.org/1999/xlink" width="93.561" height="80" viewBox="0 0 93.561 80">
  <defs>
    <clipPath id="clip-path">
      <rect id="Rectangle_410961" data-name="Rectangle 410961" width="78" height="74" transform="translate(739.157 -2555.054)" fill="#fff" stroke="#707070" stroke-width="1"/>
    </clipPath>
  </defs>
  <g id="Group_1209224" data-name="Group 1209224" transform="translate(-723.596 2561.054)">
    <g id="Rectangle_410960" data-name="Rectangle 410960" transform="translate(723.596 -2561.054)" fill="#e2dbf9" stroke="#b7a8f1" stroke-width="3">
      <rect width="70" height="70" rx="10" stroke="none"/>
      <rect x="1.5" y="1.5" width="67" height="67" rx="8.5" fill="none"/>
    </g>
    <g id="Mask_Group_1099399" data-name="Mask Group 1099399" clip-path="url(#clip-path)">
      <g id="patent_9934722" transform="translate(739.929 -2556.282)">
        <g id="Group_1209215" data-name="Group 1209215">
          <g id="Group_1209212" data-name="Group 1209212">
            <path id="Path_1248412" data-name="Path 1248412" d="M20.106,11.667H54.034a1.07,1.07,0,0,1,.783.324l6.214,6.214a1.069,1.069,0,0,1,.324.783v46.47a1.109,1.109,0,0,1-1.107,1.107H20.106A1.109,1.109,0,0,1,19,65.458V12.774a1.109,1.109,0,0,1,1.107-1.107Z" fill="#eceff1" fill-rule="evenodd"/>
            <path id="Path_1248413" data-name="Path 1248413" d="M20.106,11.667H22.13v54.9H20.106A1.109,1.109,0,0,1,19,65.458V12.774a1.109,1.109,0,0,1,1.107-1.107Z" fill="#d1d1d6" fill-rule="evenodd"/>
            <path id="Path_1248414" data-name="Path 1248414" d="M54.493,11.763a1.108,1.108,0,0,1,.324.228l6.214,6.214a1.108,1.108,0,0,1,.228.324H55.046a.555.555,0,0,1-.553-.553Z" fill="#a79ba7" fill-rule="evenodd"/>
          </g>
          <g id="Group_1209213" data-name="Group 1209213">
            <path id="Path_1248415" data-name="Path 1248415" d="M70.054,62.659l-4.734,3.926,2.539,5.895a.255.255,0,0,0,.451.034l1.639-2.641,3.045.624a.255.255,0,0,0,.285-.35Z" fill="#fe646f" fill-rule="evenodd"/>
            <path id="Path_1248416" data-name="Path 1248416" d="M70.053,62.659l-.626.519,3,6.967a.251.251,0,0,1-.015.232l.579.119a.255.255,0,0,0,.285-.35ZM67.7,72.12l1.491-2.4.754.154-1.639,2.641a.255.255,0,0,1-.451-.033Z" fill="#fd4755" fill-rule="evenodd"/>
            <path id="Path_1248417" data-name="Path 1248417" d="M63.069,66.281l-3.4,7.311a.255.255,0,0,1-.451.02l-1.562-2.687-3.062.535a.255.255,0,0,1-.275-.359l3.367-7.231Z" fill="#fe646f" fill-rule="evenodd"/>
            <path id="Path_1248418" data-name="Path 1248418" d="M63.069,66.281l-3.4,7.311a.255.255,0,0,1-.451.02l-1.562-2.687-3.062.535a.255.255,0,0,1-.275-.359l.207-.445,2.7-.472,1.562,2.687a.255.255,0,0,0,.451-.02l3.193-6.858Z" fill="#fd4755" fill-rule="evenodd"/>
            <path id="Path_1248419" data-name="Path 1248419" d="M65.089,48.26c2.035,1.523,1.574,1.355,4.112,1.5a2.141,2.141,0,0,1,1.99,1.67,5.182,5.182,0,0,0,1,2.674l1.189,1.116a2.141,2.141,0,0,1,.451,2.558c-1.147,2.269-1.062,1.785-.76,4.31a2.141,2.141,0,0,1-1.3,2.249c-2.337,1-1.961.685-3.352,2.813a2.141,2.141,0,0,1-2.441.888c-2.434-.735-1.942-.735-4.376,0a2.141,2.141,0,0,1-2.441-.888c-1.392-2.128-1.015-1.812-3.352-2.813a2.141,2.141,0,0,1-1.3-2.249c.3-2.524.387-2.041-.76-4.31a2.141,2.141,0,0,1,.451-2.558c1.854-1.74,1.608-1.314,2.188-3.79a2.141,2.141,0,0,1,1.99-1.67c2.538-.141,2.077.027,4.112-1.5a2.141,2.141,0,0,1,2.6,0Z" fill="#ffe177" fill-rule="evenodd"/>
            <path id="Path_1248420" data-name="Path 1248420" d="M65.089,48.26c2.035,1.523,1.574,1.355,4.112,1.5a2.141,2.141,0,0,1,1.99,1.67,5.182,5.182,0,0,0,1,2.674l1.189,1.116a2.141,2.141,0,0,1,.451,2.558c-1.147,2.269-1.062,1.785-.76,4.31a2.141,2.141,0,0,1-1.3,2.249c-2.337,1-1.961.685-3.352,2.813a2.139,2.139,0,0,1-2.358.912,2.152,2.152,0,0,0,1.245-.912c1.392-2.128,1.015-1.812,3.352-2.813a2.14,2.14,0,0,0,1.3-2.249c-.3-2.524-.387-2.041.76-4.31a2.141,2.141,0,0,0-.451-2.558L71.077,54.1a5.182,5.182,0,0,1-1-2.674,2.141,2.141,0,0,0-1.99-1.67c-2.538-.141-2.077.027-4.112-1.5a2.2,2.2,0,0,0-.742-.364A2.141,2.141,0,0,1,65.089,48.26ZM63.234,67.554c-.372.085-.851.245-1.632.481a2.172,2.172,0,0,1-1.2.023l.083-.023C62.142,67.535,62.446,67.375,63.234,67.554Z" fill="#ffd064" fill-rule="evenodd"/>
            <circle id="Ellipse_12709" data-name="Ellipse 12709" cx="6.065" cy="6.065" r="6.065" transform="translate(57.725 51.911)" fill="#eceff1"/>
            <path id="Path_1248421" data-name="Path 1248421" d="M63.79,51.911q.245,0,.485.019a6.065,6.065,0,0,0,0,12.092q-.24.019-.485.019a6.065,6.065,0,1,1,0-12.13Z" fill="#d1d1d6" fill-rule="evenodd"/>
          </g>
          <g id="Group_1209214" data-name="Group 1209214">
            <path id="Path_1248422" data-name="Path 1248422" d="M13.994,34.687H19v2.545a1.522,1.522,0,0,1-1.518,1.518h-1.97a1.522,1.522,0,0,1-1.518-1.518V34.687Z" fill="#b1b1b5" fill-rule="evenodd"/>
            <path id="Path_1248423" data-name="Path 1248423" d="M12.437,31.022h8.118V34.2a1.522,1.522,0,0,1-1.518,1.518H13.955A1.522,1.522,0,0,1,12.438,34.2V31.022Z" fill="#d1d1d6" fill-rule="evenodd"/>
            <path id="Path_1248424" data-name="Path 1248424" d="M18.788,30.561V34.2a1.522,1.522,0,0,1-1.518,1.518h1.768A1.522,1.522,0,0,0,20.556,34.2V30.56c-.577.019-1.187,0-1.768,0Z" fill="#b1b1b5" fill-rule="evenodd"/>
            <path id="Path_1248425" data-name="Path 1248425" d="M10.92,28.128H22.073v3.034a1.522,1.522,0,0,1-1.518,1.518H12.437a1.522,1.522,0,0,1-1.518-1.518Z" fill="#eceff1" fill-rule="evenodd"/>
            <path id="Path_1248426" data-name="Path 1248426" d="M20.306,29.643v1.518a1.522,1.522,0,0,1-1.518,1.518h1.819a1.522,1.522,0,0,0,1.467-1.517V29.643H20.306Z" fill="#d1d1d6" fill-rule="evenodd"/>
            <path id="Path_1248427" data-name="Path 1248427" d="M16.5,7.78a9.34,9.34,0,0,1,9.34,9.34c0,5.187-3.314,4.877-3.763,12.523H10.92C10.47,22,7.157,22.307,7.157,17.12A9.34,9.34,0,0,1,16.5,7.78Z" fill="#ffe177" fill-rule="evenodd"/>
            <path id="Path_1248428" data-name="Path 1248428" d="M15.613,7.822a9.341,9.341,0,0,1,8.456,9.3c0,4.818-2.859,4.894-3.626,11.007-.059.468-.105.972-.137,1.516h1.768c.449-7.646,3.763-7.336,3.763-12.523A9.34,9.34,0,0,0,16.5,7.78q-.447,0-.884.041Z" fill="#ffd064" fill-rule="evenodd"/>
          </g>
        </g>
        <path id="Path_1248429" data-name="Path 1248429" d="M22.505,5.913l1.1-1.9A1.194,1.194,0,1,1,25.674,5.2l-1.1,1.9a1.195,1.195,0,0,1-2.07-1.195ZM5.329,12.265A1.191,1.191,0,0,1,3.7,12.7l-1.9-1.1a1.195,1.195,0,1,1,1.194-2.07l1.905,1.1A1.194,1.194,0,0,1,5.329,12.265ZM7.317,5.2a1.2,1.2,0,0,1,2.07-1.195l1.1,1.905A1.194,1.194,0,1,1,8.418,7.107Zm7.985-.58v-2.2a1.195,1.195,0,0,1,2.389,0v2.2a1.195,1.195,0,1,1-2.389,0Zm26.16,50.949a1.194,1.194,0,0,1-1.195,1.194,17.472,17.472,0,1,1,3.866-34.514,1.194,1.194,0,0,1,2.1-1.118l1.667,2.5a1.195,1.195,0,0,1-.59,1.786l-2.824,1.018a1.211,1.211,0,0,1-.406.072A1.194,1.194,0,0,1,43.2,24.5a15.082,15.082,0,1,0-2.938,29.876,1.2,1.2,0,0,1,1.2,1.195Zm10.568-3.762a1.194,1.194,0,1,1-1.612-1.762c.3-.279.6-.572.876-.872s.548-.615.8-.94a1.195,1.195,0,1,1,1.88,1.474c-.3.378-.609.744-.931,1.092s-.663.685-1.017,1.009Zm2-18.458a1.195,1.195,0,0,1,2.218-.89c.177.446.339.9.479,1.352s.262.917.366,1.385a1.193,1.193,0,0,1-.908,1.424,1.164,1.164,0,0,1-.259.03,1.2,1.2,0,0,1-1.165-.936c-.09-.4-.2-.808-.317-1.2s-.26-.781-.413-1.166Zm3.391,8.038c-.069.474-.156.948-.261,1.41s-.232.927-.375,1.383a1.195,1.195,0,1,1-2.279-.718c.126-.394.235-.8.324-1.195s.166-.806.226-1.217a1.195,1.195,0,1,1,2.366.338ZM47.494,53.635a1.193,1.193,0,0,0-1.553-.663c-.384.154-.777.293-1.167.413s-.794.227-1.2.317a1.195,1.195,0,0,0,.257,2.361,1.239,1.239,0,0,0,.26-.028c.465-.1.931-.227,1.384-.366s.907-.3,1.352-.479a1.2,1.2,0,0,0,.663-1.555Zm1.6-28.117a1.194,1.194,0,0,1,1.677-.2c.377.3.744.609,1.09.931s.687.663,1.011,1.017a1.194,1.194,0,0,1-1.762,1.612c-.279-.3-.571-.6-.872-.876s-.617-.548-.943-.8a1.2,1.2,0,0,1-.2-1.677Zm-7.721,13.6V32.977a1.195,1.195,0,0,0-2.39,0v5.449l-3.5,2.02a1.195,1.195,0,0,0,.6,2.23,1.183,1.183,0,0,0,.6-.16l4.1-2.367A1.192,1.192,0,0,0,41.371,39.116Zm-8.493-7.3a1.2,1.2,0,0,0,0-1.689l-.99-.99A1.194,1.194,0,0,0,30.2,30.827l.99.99a1.192,1.192,0,0,0,1.689,0ZM50.154,49.093a1.193,1.193,0,0,0,0-1.69l-.99-.99A1.194,1.194,0,1,0,47.475,48.1l.99.99a1.192,1.192,0,0,0,1.689,0Zm-19.955,0a1.192,1.192,0,0,0,1.689,0l.99-.99a1.194,1.194,0,0,0-1.689-1.689l-.99.99a1.194,1.194,0,0,0,0,1.69ZM41.371,27.6V26.2a1.195,1.195,0,0,0-2.39,0v1.4a1.195,1.195,0,1,0,2.39,0Zm0,23.031a1.195,1.195,0,1,0-2.39,0v1.4a1.195,1.195,0,0,0,2.39,0ZM29.856,39.116a1.194,1.194,0,0,0-1.194-1.194h-1.4a1.195,1.195,0,1,0,0,2.389h1.4A1.2,1.2,0,0,0,29.856,39.116Zm17.62-8.988a1.194,1.194,0,1,0,1.688,1.689l.99-.99a1.194,1.194,0,0,0-1.689-1.689Zm5.618,7.793a1.195,1.195,0,1,1,0,2.389h-1.4a1.195,1.195,0,0,1,0-2.389Zm10.7,24.925a4.871,4.871,0,1,1,4.872-4.872,4.877,4.877,0,0,1-4.872,4.872Zm0-12.13a7.26,7.26,0,1,0,7.261,7.259A7.268,7.268,0,0,0,63.789,50.716Zm8.974,6.518a.941.941,0,0,0-.2-1.146c-.17-.16-.323-.3-.458-.427a4.684,4.684,0,0,1-1.936-3.352c-.04-.181-.086-.382-.141-.609a.943.943,0,0,0-.893-.75l-.624-.031a4.682,4.682,0,0,1-3.638-1.325c-.148-.112-.313-.238-.5-.376a.939.939,0,0,0-1.166,0c-.187.138-.351.264-.5.376a4.677,4.677,0,0,1-3.636,1.325l-.626.031a.945.945,0,0,0-.893.75c-.052.227-.1.429-.141.609a4.682,4.682,0,0,1-1.935,3.352c-.136.127-.288.267-.457.427a.938.938,0,0,0-.2,1.146c.1.208.2.393.283.559a4.686,4.686,0,0,1,.674,3.811c-.024.185-.049.391-.078.621a.943.943,0,0,0,.584,1.009c.214.093.4.172.575.245a4.679,4.679,0,0,1,2.965,2.488c.1.157.214.33.341.526a.941.941,0,0,0,1.1.4l.6-.182a6.7,6.7,0,0,1,1.935-.42,6.7,6.7,0,0,1,1.936.42l.6.182a.94.94,0,0,0,1.094-.4c.129-.2.24-.369.34-.526a4.68,4.68,0,0,1,2.966-2.488c.171-.074.363-.152.576-.245a.941.941,0,0,0,.582-1.009c-.027-.231-.053-.436-.076-.621a4.682,4.682,0,0,1,.672-3.811c.085-.166.179-.351.284-.559ZM70.187,68.7a1.2,1.2,0,0,0-1.255.541l-.69,1.111-.524-1.217a3.348,3.348,0,0,0,1.7-1.336c.131-.2.245-.376.349-.536.269-.418.449-.7.593-.874l1.108,2.575ZM59.342,71.455l-.656-1.13a1.2,1.2,0,0,0-1.24-.576l-1.288.224,1.426-3.062c.07.105.145.222.23.353.1.16.218.337.348.536a3.337,3.337,0,0,0,2.2,1.469ZM20.194,36.646V65.37H55.208a3.334,3.334,0,0,1-1.884-3.429c.026-.236.053-.445.077-.635a5.615,5.615,0,0,0,.094-1.266,5.676,5.676,0,0,0-.522-1.158q-.13-.253-.291-.571a3.338,3.338,0,0,1,.7-3.968c.174-.162.329-.306.467-.436a5.643,5.643,0,0,0,.887-.91,5.7,5.7,0,0,0,.344-1.221c.044-.187.089-.393.143-.625a3.339,3.339,0,0,1,3.086-2.589c.238-.013.45-.024.64-.032a6.883,6.883,0,0,0,1.207-.111v-28.7H55.044A1.75,1.75,0,0,1,53.3,17.977V12.863H26.128a10.467,10.467,0,0,1,.9,4.257,9.85,9.85,0,0,1-1.69,5.624,13.242,13.242,0,0,0-2.073,6.937v1.48a2.713,2.713,0,0,1-1.517,2.431v.6a2.711,2.711,0,0,1-1.556,2.45Zm-2.713.909h-1.97a.328.328,0,0,1-.323-.324v-.323H17.8v.323a.329.329,0,0,1-.324.324ZM19.3,18.164v-.975a.976.976,0,1,1,.975.975ZM16.915,28.448h-.836v-7.9h.836ZM13.689,18.164h-.977a.975.975,0,1,1,.977-.975Zm7.188,13a.327.327,0,0,1-.323.323H12.437a.327.327,0,0,1-.324-.323v-.324h8.764v.324ZM19.361,34.2a.327.327,0,0,1-.323.324H13.955a.327.327,0,0,1-.323-.324v-.323h5.728V34.2ZM8.35,17.12a7.464,7.464,0,0,0,1.364,4.417,15.168,15.168,0,0,1,2.308,6.911h1.668v-7.9h-.977a3.364,3.364,0,1,1,3.366-3.364v.975h.836v-.975a3.365,3.365,0,1,1,3.364,3.364H19.3v7.9h1.668a15.172,15.172,0,0,1,2.306-6.911,7.468,7.468,0,0,0,1.363-4.417,8.145,8.145,0,0,0-16.291,0Zm47.337-2.568,2.783,2.783H55.687ZM74.606,58.883c.086-.169.182-.359.29-.571a3.338,3.338,0,0,0-.7-3.968c-.173-.162-.328-.306-.469-.436a5.646,5.646,0,0,1-.886-.91,5.552,5.552,0,0,1-.345-1.221c-.042-.187-.09-.393-.143-.625a3.338,3.338,0,0,0-3.087-2.589c-.238-.013-.449-.024-.639-.032a5.713,5.713,0,0,1-1.263-.127,5.644,5.644,0,0,1-1.05-.716c-.151-.115-.32-.243-.511-.385a3.335,3.335,0,0,0-3.255-.434V18.988a2.262,2.262,0,0,0-.674-1.628l-6.213-6.214a2.264,2.264,0,0,0-1.627-.673H24.662a10.53,10.53,0,0,0-18.7,6.647,9.86,9.86,0,0,0,1.69,5.624,13.249,13.249,0,0,1,2.073,6.94v1.478a2.714,2.714,0,0,0,1.519,2.431v.6a2.712,2.712,0,0,0,1.555,2.45v.586a2.716,2.716,0,0,0,2.712,2.713h1.97a2.887,2.887,0,0,0,.324-.02V65.456a2.3,2.3,0,0,0,2.3,2.3H54.553L53.026,71.04a1.193,1.193,0,0,0,1.288,1.68l2.722-.474,1.389,2.389a1.2,1.2,0,0,0,1.033.594h.053a1.193,1.193,0,0,0,1.03-.688l2.676-5.746a2.317,2.317,0,0,1,.571-.115,5.6,5.6,0,0,1,1.231.313.317.317,0,0,1,.039.012l1.9,4.4a1.194,1.194,0,0,0,1.008.718c.03,0,.06,0,.09,0a1.193,1.193,0,0,0,1.014-.564l1.458-2.349,2.709.555a1.194,1.194,0,0,0,1.336-1.642L72.5,65.31a3.336,3.336,0,0,0,1.761-3.369c-.028-.236-.055-.445-.079-.635a5.7,5.7,0,0,1-.094-1.266,5.555,5.555,0,0,1,.523-1.158Z" fill-rule="evenodd"/>
      </g>
    </g>
  </g>
</svg>
